<?xml version="1.0" encoding="UTF-8"?>
<!DOCTYPE svg PUBLIC "-//W3C//DTD SVG 1.1//EN" "http://www.w3.org/Graphics/SVG/1.1/DTD/svg11.dtd">
<svg xmlns="http://www.w3.org/2000/svg" version="1.1" width="21px" height="20px" style="shape-rendering:geometricPrecision; text-rendering:geometricPrecision; image-rendering:optimizeQuality; fill-rule:evenodd; clip-rule:evenodd" xmlns:xlink="http://www.w3.org/1999/xlink">
<g><path style="opacity:1" fill="#ffeceb" d="M -0.5,-0.5 C 2.16667,-0.5 4.83333,-0.5 7.5,-0.5C 4.23924,1.09021 1.57257,3.42355 -0.5,6.5C -0.5,4.16667 -0.5,1.83333 -0.5,-0.5 Z"/></g>
<g><path style="opacity:1" fill="#fff6f6" d="M 13.5,-0.5 C 15.8333,-0.5 18.1667,-0.5 20.5,-0.5C 20.5,1.5 20.5,3.5 20.5,5.5C 19.4157,4.0262 18.0824,3.19287 16.5,3C 14.4569,6.25345 12.2902,9.42011 10,12.5C 8.64699,11.3147 7.48032,9.98138 6.5,8.5C 6.45676,11.0881 7.62342,13.4214 10,15.5C 12.2683,11.9494 14.7683,8.61607 17.5,5.5C 19.9854,15.7882 15.9854,19.6216 5.5,17C 0.166667,12 0.166667,7 5.5,2C 8.83333,1.66667 12.1667,1.33333 15.5,1C 14.5842,0.721579 13.9175,0.221579 13.5,-0.5 Z"/></g>
<g><path style="opacity:1" fill="#ff7a78" d="M 7.5,-0.5 C 9.5,-0.5 11.5,-0.5 13.5,-0.5C 13.9175,0.221579 14.5842,0.721579 15.5,1C 12.1667,1.33333 8.83333,1.66667 5.5,2C 0.166667,7 0.166667,12 5.5,17C 15.9854,19.6216 19.9854,15.7882 17.5,5.5C 14.7683,8.61607 12.2683,11.9494 10,15.5C 7.62342,13.4214 6.45676,11.0881 6.5,8.5C 7.48032,9.98138 8.64699,11.3147 10,12.5C 12.2902,9.42011 14.4569,6.25345 16.5,3C 18.0824,3.19287 19.4157,4.0262 20.5,5.5C 20.5,7.83333 20.5,10.1667 20.5,12.5C 19.4415,13.6002 18.6082,14.9336 18,16.5C 16.3484,17.3994 14.8484,18.3994 13.5,19.5C 10.8333,19.5 8.16667,19.5 5.5,19.5C 2.79973,17.7656 0.799728,15.4323 -0.5,12.5C -0.5,10.5 -0.5,8.5 -0.5,6.5C 1.57257,3.42355 4.23924,1.09021 7.5,-0.5 Z"/></g>
<g><path style="opacity:1" fill="#fff6f6" d="M -0.5,12.5 C 0.799728,15.4323 2.79973,17.7656 5.5,19.5C 3.5,19.5 1.5,19.5 -0.5,19.5C -0.5,17.1667 -0.5,14.8333 -0.5,12.5 Z"/></g>
<g><path style="opacity:1" fill="#fff2f1" d="M 20.5,12.5 C 20.5,14.8333 20.5,17.1667 20.5,19.5C 18.1667,19.5 15.8333,19.5 13.5,19.5C 14.8484,18.3994 16.3484,17.3994 18,16.5C 18.6082,14.9336 19.4415,13.6002 20.5,12.5 Z"/></g>
</svg>
